COVER
 
http://www.imgbank.cz/images/1313864227.jpg

[b]Tracklist:

01. Robin Hood 8:24
02. Nobody's Hero 4:32
03. Rock Of Cashel 6:18
04. Pandora's Box 6:45
05. Breathe 5:03
06. Two Out Of Seven 4:28
07. Faces In The Darkness 5:22
08. The Arcane Guild 4:59
09. Fire On The Downline 5:47
10. Behind The Gates To Midnight World 8:57
11. Every Night Without You 4:52[/b]




Country: Germany / Fulda
Genre: Power Metal / Heavy Metal
Format: FLAC 
Quality: Lossless 

Used drive  : PLEXTOR DVDR   PX-860A   Adapter: 0  ID: 0

Read mode               : Secure
Utilize accurate stream : Yes
Defeat audio cache      : Yes
Make use of C2 pointers : No

Read offset correction                      : 96
Overread into Lead-In and Lead-Out          : No
Fill up missing offset samples with silence : Yes
Delete leading and trailing silent blocks   : No
Null samples used in CRC calculations       : Yes
Used interface                              : Installed external ASPI interface

Used output format              : User Defined Encoder
Selected bitrate                : 1024 kBit/s
Quality                         : High
Add ID3 tag                     : Yes
Command line compressor         : C:Program FilesExact Audio CopyFLAC.EXE
Additional command line options : -6 -V %s


TOC of the extracted CD

     Track |   Start  |  Length  | Start sector | End sector 
    ---------------------------------------------------------
        1  |  0:00.00 |  8:24.15 |         0    |    37814   
        2  |  8:24.15 |  4:31.62 |     37815    |    58201   
        3  | 12:56.02 |  6:18.20 |     58202    |    86571   
        4  | 19:14.22 |  6:45.37 |     86572    |   116983   
        5  | 25:59.59 |  5:03.10 |    116984    |   139718   
        6  | 31:02.69 |  4:27.58 |    139719    |   159801   
        7  | 35:30.52 |  5:22.24 |    159802    |   183975   
        8  | 40:53.01 |  4:58.50 |    183976    |   206375   
        9  | 45:51.51 |  5:46.71 |    206376    |   232396   
       10  | 51:38.47 |  8:56.62 |    232397    |   272658   
       11  | 60:35.34 |  4:52.03 |    272659    |   294561